<?xml version="1.0" encoding="UTF-8"?>
<svg id="Capa_1" data-name="Capa 1" xmlns="http://www.w3.org/2000/svg" viewBox="0 0 251.36 359.33">
  <defs>
    <style>
      .cls-1 {
        fill: #fff;
        stroke-width: 0px;
      }
    </style>
  </defs>
  <path class="cls-1" d="M78.42,137.75c-11.76-19.36-23.09-38-34.41-56.65C29.84,57.76,15.62,34.45,1.6,11.02.39,9-.29,6.08.12,3.82.66.75,3.61,0,6.61,0c9.12.05,18.25.02,27.37.02,69.24,0,138.48,0,207.73,0,1.25,0,2.51-.07,3.75.04,4.79.4,7.27,4.57,5.13,8.85-1.28,2.56-2.9,4.94-4.39,7.4-23.79,39.24-47.58,78.48-71.36,117.72-.63,1.04-1.19,2.12-2,3.55,1.58.07,2.76.17,3.94.17,12.37.01,24.75,0,37.12.01,5.46.01,7.54,2.03,7.56,7.38.04,9.11.04,18.21,0,27.32-.02,5.12-2.15,7.15-7.36,7.21-2.73.03-5.45,0-8.41,0,1.89,13.96,3.73,27.53,5.58,41.1,3.88,28.53,7.76,57.05,11.64,85.58,1.38,10.13,2.63,20.27,4.17,30.37,2,13.18-5.85,22.59-19.19,22.59-54.99.02-109.99.02-164.98,0-12.96,0-20.78-9.27-19.02-22.01,4.94-35.93,9.73-71.88,14.61-107.82,2.11-15.56,4.29-31.11,6.42-46.67.12-.86.15-1.73.26-3.14-3.06,0-6,.06-8.93-.01-4.42-.1-6.74-2.31-6.78-6.7-.08-9.48-.08-18.96,0-28.44.04-4.53,2.39-6.73,7.11-6.75,12.5-.04,25-.01,37.5-.02,1.21,0,2.43,0,4.36,0ZM57.3,179.67c-4.35,32.03-8.66,63.71-13.04,95.93h134.91v11.86H42.76c-.23,1.45-.45,2.66-.62,3.87-2.14,15.68-4.23,31.37-6.42,47.04-.86,6.15,1.42,8.96,7.64,8.96,54.74.01,109.47.01,164.21,0,6,0,8.36-2.87,7.53-8.74-1.46-10.36-2.82-20.74-4.24-31.11-.91-6.63-1.84-13.25-2.8-20.12h-16.42v-12.03h14.85c-4.36-32.09-8.67-63.77-13.01-95.65-15.22,0-30.07-.04-44.92.09-.94,0-2.17,1.06-2.75,1.96-2.51,3.87-4.8,7.88-7.23,11.8-3.44,5.54-6.93,11.06-10.37,16.54.69.91,2.07,2.11,2.7,3.63,3.79,9.08,7.55,18.17,11.03,27.37,2.63,6.96,1.69,13.78-2.26,20.05-6.92,11-21.56,11.09-28.61.16-4.45-6.9-4.81-14.29-1.85-21.83,3.14-8,6.36-15.97,9.71-23.88.92-2.19,2.42-4.13,3.63-6.14-1.25-1.72-2.88-3.7-4.23-5.86-4.41-7.1-8.78-14.22-13-21.42-1.09-1.87-2.31-2.52-4.45-2.5-11.37.1-22.74.05-34.12.05-3.1,0-6.2,0-9.48,0ZM16.37,12.16c.84,1.52,1.38,2.61,2.01,3.65,23.74,39.12,47.5,78.23,71.25,117.35,3.24,5.34,3.45,5.42,10.52,4.15-9.48-33.15-18.95-66.26-28.49-99.64,4.02-1.14,7.66-2.18,11.5-3.27,9.97,34.67,19.83,68.96,29.68,103.19h25.29c9.85-34.4,19.67-68.73,29.58-103.33,3.99,1.16,7.65,2.22,11.48,3.33-9.59,33.53-19.06,66.65-28.52,99.71,5.21,1.42,8.18-.08,10.89-4.6,23.42-39.02,47.14-77.87,70.76-116.77.68-1.12,1.27-2.29,2.09-3.77H16.37ZM41.58,167.44h167.52v-17.52H41.58v17.52ZM125.9,232.69c-.33-.02-.66-.04-1-.07-1.76,4.59-3.99,9.08-5.1,13.82-.58,2.5.23,5.74,1.45,8.13,2.02,3.98,6.6,3.92,8.38-.19,1.19-2.74,1.6-6.32.98-9.23-.92-4.3-3.08-8.33-4.71-12.48ZM125.46,192.04c2.63-4.36,4.91-8.12,7.33-12.13h-14.67c2.48,4.1,4.71,7.78,7.34,12.13Z"/>
  <path class="cls-1" d="M132.79,179.92c-2.42,4-4.69,7.77-7.33,12.13-2.63-4.34-4.86-8.03-7.34-12.13"/>
</svg>