<?xml version="1.0" encoding="UTF-8"?>
<svg id="Capa_1" data-name="Capa 1" xmlns="http://www.w3.org/2000/svg" viewBox="0 0 1702.34 886.47">
  <defs>
    <style>
      .cls-1 {
        letter-spacing: -.1em;
      }

      .cls-2, .cls-3, .cls-4, .cls-5, .cls-6, .cls-7 {
        stroke: #23388e;
        stroke-width: 2px;
      }

      .cls-2, .cls-3, .cls-4, .cls-7 {
        stroke-miterlimit: 10;
      }

      .cls-2, .cls-5 {
        fill: none;
      }

      .cls-2, .cls-5, .cls-6 {
        stroke-linecap: round;
      }

      .cls-8, .cls-3 {
        fill: #cc9577;
      }

      .cls-8, .cls-9 {
        stroke-width: 0px;
      }

      .cls-4 {
        fill: #f3d8c8;
      }

      .cls-5, .cls-6 {
        stroke-linejoin: round;
      }

      .cls-9 {
        fill: #23388e;
      }

      .cls-10 {
        font-family: Pacifico-Regular, Pacifico;
        font-size: 198.97px;
      }

      .cls-10, .cls-11 {
        fill: #fff;
      }

      .cls-11 {
        font-family: AlfaSlabOne-Regular, 'Alfa Slab One';
        font-size: 145.67px;
      }

      .cls-6 {
        fill: #f3d8c7;
      }

      .cls-7 {
        fill: #f3d9c8;
      }
    </style>
  </defs>
  <g>
    <path class="cls-3" d="M291.67,72.49l30.54-61.08c4-8.01,13.1-12.09,21.74-9.75l408.61,108.55c7.65,2.03,13.06,8.83,13.32,16.74l2.57,77.91L291.67,72.49Z"/>
    <polygon class="cls-9" points="298.36 59.12 767.59 178.73 767.59 200.19 290.02 71.85 298.36 59.12"/>
    <path class="cls-3" d="M237.32,117.64l14.24-46.48c2.69-8.78,11.86-13.84,20.72-11.44l505.9,137.07c9.38,2.54,14.77,12.37,11.87,21.64l-14.77,47.25L237.32,117.64Z"/>
    <path class="cls-4" d="M245.23,145.99l-86.26,617.78c-2.62,18.75,7.96,36.83,25.61,43.69,35.69,13.86,94.61,36.11,128.4,45.37,50.81,13.93,174.26,43.1,205.69,28.79,1.08-.49,127.03-283.98,127.03-283.98l119.31-319.92L245.23,145.99Z"/>
    <path class="cls-7" d="M222.58,105.38l576.88,157.11c6.33,1.72,9.85,8.46,7.65,14.64l-3.6,13.32c-2,7.4-9.61,11.79-17.01,9.82L214.1,148.18c-7.09-1.89-11.25-9.23-9.22-16.29l5.68-19.75c1.48-5.16,6.84-8.17,12.02-6.76Z"/>
    <polygon class="cls-9" points="178.61 630.93 175.9 654.54 573.05 759.49 580.58 736.15 178.61 630.93"/>
    <g>
      <path class="cls-8" d="M172.84,329.95c3.17-16.87,19.22-28.06,36.15-25.21,54.74,9.21,151.79,30.2,263.19,61.31,90.96,25.4,192.3,54.33,240.01,68.94,15.71,4.81,24.38,21.59,19.22,37.19-10.98,33.16-30.19,89.19-48.96,134.64-20.66,50.02-44.29,106.2-56.21,132.6-4.31,9.55-14.56,14.86-24.84,12.87-41.05-7.94-144.77-38.37-229.09-60.66-79.29-20.96-173.64-48.56-220.47-64.47-13.17-4.47-22.07-16.62-20.24-30.41,3.63-27.31,9.9-74.07,16.38-120.41,6.67-47.7,18-109.99,24.85-146.39Z"/>
      <path class="cls-9" d="M171.88,329.77c2.33-13.09,13.41-24,26.57-25.99,2.82-.49,5.73-.56,8.57-.26,19.85,3.05,39.49,7.08,59.17,11.03,139.63,28.67,276.26,69.8,413.16,109.11,5.67,1.88,29.6,8.54,35.26,10.66,14.61,5.28,23.07,22.22,18.49,37.09-27.38,84.73-62.15,167.05-97.11,248.88-1.73,3.8-6.31,14.64-8.04,18.36-3.39,8.79-12.16,15.24-21.68,15.28-2.25.13-4.68-.32-6.89-.79-26.16-5.48-51.99-12.66-77.77-19.59-119.72-33.88-241.48-63.53-359.97-101.39-7.26-2.5-15.84-4.5-21.69-9.9-6.25-5.4-10.31-13.43-10.28-21.76-.06-2.3.31-4.63.61-6.88,0,0,7.26-52.93,7.26-52.93,9.16-69.81,20.74-142.04,34.33-210.93h0ZM173.81,330.13c-16.71,86.01-28.58,176.93-40.08,263.95-1.71,8.33.25,17.19,6.21,23.42,2.83,3.13,6.39,5.52,10.25,7.22,3.25,1.23,9.02,3.15,12.49,4.29,118.45,38.78,239.45,69.12,359.53,102.34,25.77,6.85,51.55,13.93,77.66,19.33,4.1.99,8.5,1.03,12.52-.35,5-1.65,9.28-5.23,11.88-9.8.86-1.54,3.31-7.2,4.13-9,3.36-7.59,12.57-28.79,15.96-36.73,13.74-32.2,28.06-66.07,41.27-98.52,15.64-39.22,29.36-79.32,42.69-119.38,0,0,1.05-3.17,1.05-3.17.35-1.05.72-2.12.97-3.13,3.73-12.3-2.39-26.54-13.89-32.29-3.01-1.73-8.93-3.15-12.34-4.28-110.97-32.6-222.13-65.38-334.25-93.67-51.85-12.73-103.94-24.62-156.52-33.89-4.87-.91-9.69-1.69-14.58-.78-12.35,1.89-22.78,12.1-24.97,24.41h0Z"/>
    </g>
    <circle class="cls-7" cx="422.88" cy="542.19" r="109.9"/>
    <path class="cls-2" d="M408.95,534.92s-5.52,19.57,9.79,23.84c15.31,4.27,24.34-14.05,24.34-14.05"/>
    <circle class="cls-9" cx="390.89" cy="508.07" r="6.49"/>
    <circle class="cls-9" cx="472.18" cy="532.16" r="6.28"/>
    <path class="cls-4" d="M97.69,298.8s-2.42,95.2,52.99,159.2c-.09.62-10.21,72.96-10.21,72.96,0,0-86.81-37.95-98.86-224.13.5.5,56.08-8.03,56.08-8.03Z"/>
    <path class="cls-9" d="M40.57,316.77l59-4.33-.99-4.99s-38.81,8.28-53.77,2.63c-4.89-1.32-6.59-1.88-6.59-1.88l2.35,8.56Z"/>
    <path class="cls-6" d="M28.06,278.48v19.07s-.75,13.8,41.4,14.05c31.11-1,38.63-8.78,38.63-8.78l1.26-24.34s-8.28,6.52-17.56,3.76c9.28,3.26,29.11-6.02,36.38-26.6,2.26-5.52,1.51-42.15,0-57.21-.25-3.01.5-12.3,8.53-30.11,8.03-17.82,34.38-70.01,15.81-82.05-18.57-12.04-32.62,16.31-37.64,30.86-5.02,14.55-23.84,63.48-23.84,63.48l-2.26-88.07s1-25.34-17.82-25.34c0,0-16.31,1.76-17.06,23.84-.75,22.08,3.76,82.05,7.28,90.58l-.13,1.63s-.75-26.47-20.2-27.22c-13.8-.5-15.68,14.18-15.68,14.18,0,0-2.51-2.76-8.78-2.76s-13.93,3.89-15.31,22.96c-1.38,19.07,14.55,38.14,17.06,39.65,0,.13-7.65,29.11,12.3,43.79,3.39,2.01,16.44,5.52,16.44,5.52,0,0-12.36-2.38-18.86-7.49-.18-.21.04,6.61.04,6.61Z"/>
    <path class="cls-5" d="M57.23,254.67s-.94-12.99,10.07-15.53c1.22-.47,3.11-4.42,3.11-4.42l-23.76-25.53c-2.8-3.01-4.75-6.8-5.05-10.9-.24-3.25.45-6.9,3.6-9.77,7.34-6.68,22.3-1.98,33.03,6.12,10.73,8.09,35.19,35.47,35.19,35.47"/>
    <path class="cls-5" d="M25.17,170.21s0,20.29.44,28.2c.45,8.08,3.67,32.09,20.14,30.67,5.93-.19,11.51-8.48,11.51-8.48"/>
    <path class="cls-5" d="M18.15,230.05c3.05,1.96,13.89,1.79,14.46-7.43"/>
  </g>
  <g id="Text">
    <text class="cls-10" transform="translate(1059.99 488.93) rotate(-10.22)"><tspan x="0" y="0">Coffee</tspan></text>
    <text class="cls-11" transform="translate(1036.85 653.08)"><tspan class="cls-1" x="0" y="0">P</tspan><tspan x="92.94" y="0">ARADE</tspan></text>
  </g>
</svg>