<?xml version="1.0" encoding="UTF-8"?>
<svg id="Capa_1" data-name="Capa 1" xmlns="http://www.w3.org/2000/svg" viewBox="0 0 235.99 258.53">
  <defs>
    <style>
      .cls-1, .cls-2, .cls-3, .cls-4, .cls-5, .cls-6 {
        stroke: #23388e;
        stroke-width: 2px;
      }

      .cls-1, .cls-2, .cls-3, .cls-6 {
        stroke-miterlimit: 10;
      }

      .cls-1, .cls-4 {
        fill: none;
      }

      .cls-1, .cls-4, .cls-5 {
        stroke-linecap: round;
      }

      .cls-7, .cls-2 {
        fill: #cc9577;
      }

      .cls-7, .cls-8 {
        stroke-width: 0px;
      }

      .cls-3 {
        fill: #f3d8c8;
      }

      .cls-4, .cls-5 {
        stroke-linejoin: round;
      }

      .cls-8 {
        fill: #23388e;
      }

      .cls-5 {
        fill: #f3d8c7;
      }

      .cls-6 {
        fill: #f3d9c8;
      }
    </style>
  </defs>
  <path class="cls-2" d="M85.31,21.73l8.86-17.72c1.16-2.32,3.8-3.51,6.31-2.83l118.51,31.48c2.22.59,3.79,2.56,3.86,4.86l.75,22.6L85.31,21.73Z"/>
  <polygon class="cls-8" points="87.25 17.86 223.34 52.55 223.34 58.77 84.83 21.55 87.25 17.86"/>
  <path class="cls-2" d="M69.54,34.83l4.13-13.48c.78-2.55,3.44-4.01,6.01-3.32l146.73,39.76c2.72.74,4.28,3.59,3.44,6.28l-4.28,13.7L69.54,34.83Z"/>
  <path class="cls-3" d="M71.84,43.05l-25.02,179.18c-.76,5.44,2.31,10.68,7.43,12.67,10.35,4.02,27.44,10.47,37.24,13.16,14.74,4.04,50.54,12.5,59.66,8.35.31-.14,36.84-82.37,36.84-82.37l34.61-92.79L71.84,43.05Z"/>
  <path class="cls-6" d="M65.27,31.27l167.32,45.57c1.83.5,2.86,2.45,2.22,4.25l-1.05,3.86c-.58,2.15-2.79,3.42-4.93,2.85L62.81,43.69c-2.06-.55-3.26-2.68-2.67-4.72l1.65-5.73c.43-1.5,1.98-2.37,3.49-1.96Z"/>
  <polygon class="cls-8" points="52.51 183.71 51.73 190.55 166.92 220.99 169.1 214.23 52.51 183.71"/>
  <g>
    <path class="cls-7" d="M50.84,96.41c.92-4.89,5.57-8.14,10.48-7.31,15.88,2.67,44.02,8.76,76.34,17.78,26.38,7.37,55.77,15.76,69.61,20,4.56,1.39,7.07,6.26,5.57,10.79-3.19,9.62-8.76,25.87-14.2,39.05-5.99,14.51-12.85,30.8-16.3,38.46-1.25,2.77-4.22,4.31-7.21,3.73-11.91-2.3-41.99-11.13-66.44-17.59-23-6.08-50.36-14.09-63.94-18.7-3.82-1.3-6.4-4.82-5.87-8.82,1.05-7.92,2.87-21.48,4.75-34.92,1.94-13.84,5.22-31.9,7.21-42.46Z"/>
    <path class="cls-8" d="M49.88,96.23c1.05-5.91,7.29-9.43,12.93-7.87,5.11.86,10.19,1.83,15.26,2.86,29.31,5.78,61.29,14.65,90.13,23.01,0,0,29.82,8.49,29.82,8.49l7.45,2.12,1.86.53c.29.07.66.2,1.01.34,1.77.66,3.35,1.86,4.46,3.39,1.81,2.44,2.38,5.72,1.51,8.62-.71,2.18-1.75,5.22-2.52,7.4-6.53,18.93-15.3,39.08-22.93,57.67-.97,2.31-3.5,8.5-4.46,10.74-.51,1.1-1.03,2.76-1.84,3.73-1.85,2.48-5.2,3.57-8.18,2.78-22.72-5.15-44.83-12.43-67.39-18.15-20-5.29-40.02-10.48-59.76-16.7,0,0-1.85-.61-1.85-.61-5.3-1.27-9.28-6.25-8.1-11.85,0,0,2.15-15.35,2.15-15.35,2.73-20.5,6.38-40.88,10.45-61.15h0ZM51.81,96.59c-4.72,25.19-7.72,51.15-11.09,76.59-.94,4.03,1.86,7.31,5.72,8.24,0,0,1.82.62,1.82.62,19.56,6.47,39.34,12.52,59.24,17.93,20.66,5.37,46.75,13.08,67.37,17.59,2.05.56,4.38-.14,5.68-1.85.62-.7,1.15-2.33,1.57-3.2.93-2.22,3.61-8.35,4.61-10.65,8.43-18.84,16.35-37.88,22.46-57.62.77-2.43,1.65-4.95,2.37-7.3,1.02-3.39-.94-7.29-4.26-8.49-6.71-2.03-32.66-9.48-39.87-11.59-28.8-8.43-60.54-17.59-89.79-23.6-5.05-1.06-10.1-2.07-15.17-2.97-4.69-1.41-9.83,1.43-10.67,6.3h0Z"/>
  </g>
  <circle class="cls-6" cx="123.36" cy="157.97" r="31.88"/>
  <path class="cls-1" d="M119.32,155.86s-1.6,5.68,2.84,6.91c4.44,1.24,7.06-4.08,7.06-4.08"/>
  <circle class="cls-8" cx="114.08" cy="148.07" r="1.88"/>
  <circle class="cls-8" cx="137.66" cy="155.06" r="1.82"/>
  <path class="cls-3" d="M29.04,87.38s-.7,27.61,15.37,46.17c-.03.18-2.96,21.16-2.96,21.16,0,0-25.18-11.01-28.67-65.01.15.15,16.27-2.33,16.27-2.33Z"/>
  <path class="cls-8" d="M12.48,92.59l17.11-1.26-.29-1.45s-11.26,2.4-15.6.76c-1.42-.38-1.91-.55-1.91-.55l.68,2.48Z"/>
  <path class="cls-5" d="M8.85,81.48v5.53s-.22,4,12.01,4.08c9.02-.29,11.21-2.55,11.21-2.55l.37-7.06s-2.4,1.89-5.09,1.09c2.69.95,8.44-1.75,10.55-7.71.65-1.6.44-12.23,0-16.59-.07-.87.15-3.57,2.47-8.73s9.97-20.3,4.58-23.8c-5.39-3.49-9.46,4.73-10.92,8.95s-6.91,18.41-6.91,18.41l-.65-25.54s.29-7.35-5.17-7.35c0,0-4.73.51-4.95,6.91s1.09,23.8,2.11,26.27l-.04.47s-.22-7.68-5.86-7.9c-4-.15-4.55,4.11-4.55,4.11,0,0-.73-.8-2.55-.8s-4.04,1.13-4.44,6.66c-.4,5.53,4.22,11.06,4.95,11.5,0,.04-2.22,8.44,3.57,12.7.98.58,4.77,1.6,4.77,1.6,0,0-3.58-.69-5.47-2.17-.05-.06.01,1.92.01,1.92Z"/>
  <path class="cls-4" d="M17.31,74.58s-.27-3.77,2.92-4.5c.35-.14.9-1.28.9-1.28l-6.89-7.41c-.81-.87-1.38-1.97-1.47-3.16-.07-.94.13-2,1.04-2.83,2.13-1.94,6.47-.57,9.58,1.77s10.21,10.29,10.21,10.29"/>
  <path class="cls-4" d="M8.01,50.08s0,5.89.13,8.18,1.06,9.31,5.84,8.9c1.72-.05,3.34-2.46,3.34-2.46"/>
  <path class="cls-4" d="M5.97,67.43c.88.57,4.03.52,4.19-2.16"/>
</svg>