<?xml version="1.0" encoding="UTF-8"?>
<svg id="Capa_1" data-name="Capa 1" xmlns="http://www.w3.org/2000/svg" viewBox="0 0 137.69 166.51">
  <defs>
    <style>
      .cls-1 {
        fill: #fff;
        stroke-width: 0px;
      }
    </style>
  </defs>
  <path class="cls-1" d="M4.43,166.51c-3.81-1.64-4.74-4.51-4.35-8.52,1.81-18.7,3.39-37.43,5.06-56.15,1.61-18.07,3.25-36.14,4.87-54.21.38-4.25,2.63-6.35,6.86-6.35,6.61,0,13.22,0,20.1,0,0-.79,0-1.52,0-2.25.05-5.24-.21-10.48,1.17-15.66C42.29,7.92,58.19-2.31,74,.45c15.21,2.65,26.12,15.15,26.65,30.61.12,3.34.02,6.69.02,10.23.8,0,1.43,0,2.06,0,6.02,0,12.03,0,18.05,0,4.14,0,6.41,1.94,6.81,6.03.75,7.6,1.37,15.21,2.06,22.81,1.05,11.65,2.1,23.3,3.14,34.95.92,10.25,1.82,20.5,2.74,30.75.67,7.5,1.18,15.01,2.07,22.49.47,3.95-.74,6.61-4.36,8.19H4.43ZM36.97,53.27c-4.76,0-9.26.06-13.76-.04-1.46-.03-1.78.47-1.89,1.82-.63,7.83-1.35,15.65-2.05,23.47-1.04,11.6-2.09,23.2-3.13,34.79-.93,10.3-1.86,20.61-2.79,30.91-.3,3.38-.58,6.75-.88,10.18h112.72c-.36-4.07-.71-8.01-1.07-11.95-.91-10.2-1.82-20.39-2.73-30.59-1.03-11.49-2.08-22.98-3.11-34.47-.68-7.61-1.36-15.21-2-22.82-.09-1.06-.5-1.37-1.52-1.33-1.68.07-3.36.02-5.04.02-2.96,0-5.92,0-9.02,0,0,.73,0,1.26,0,1.79,0,2.93.05,5.85-.02,8.78-.08,3.45-2.67,6.05-5.95,6.06-3.2.01-5.81-2.47-5.98-5.86-.11-2.27-.03-4.55-.04-6.83,0-1.28,0-2.56,0-3.82h-39.76c0,3.47.03,6.83,0,10.18-.04,2.95-1.61,5.19-4.11,6.01-3.92,1.28-7.75-1.49-7.85-5.75-.08-3.45-.02-6.91-.02-10.55ZM88.69,41.21c0-3.41.06-6.71-.01-10-.2-8.61-6.27-16.32-14.5-18.51-8.64-2.3-17.5,1.23-22.21,8.58-3.99,6.24-2.81,13.11-3.01,19.93h39.73Z"/>
</svg>